<svg id="Layer_1" enable-background="new 0 0 50 50" height="512" viewBox="0 0 50 50" width="512" xmlns="http://www.w3.org/2000/svg"><g><path d="m3.8768747 26.2827511 22.0140002 13.3627987 20.9804973-12.1197987-22.0140972-13.3521995z" fill="#3498db"/><path d="m22.6448746 13.6371517c.0093994.7276001.2644997 1.2378998.6707993 1.4741001l21.783699 12.6655006c-.4062996-.2457008-.661377-.7560005-.6708984-1.4740009 0-1.4552002 1.0205231-3.2127991 2.2866974-3.9403992.6331024-.3684006 1.2095032-.4063015 1.6252022-.1606007l-21.7929994-12.656c-.4158001-.2456999-.9922009-.2079-1.6253014.1512003-1.2567996.7274999-2.2771987 2.4849996-2.2771987 3.9401998z" fill="#3293c9"/><path d="m46.7120743 22.3598518c-1.2609024.7280006-2.2831993 2.4846992-2.2789993 3.9405003.004097 1.4557991 1.0329971 2.0422001 2.2939224 1.3141994 1.2548752-.7245007 2.2770767-2.4951 2.2729988-3.9508991-.0041237-1.455801-1.0329971-2.0283012-2.2879219-1.3038006z" fill="#328eb7"/><g fill="#fff"><path d="m23.5954742 29.8189507-10.7755994-6.2212983-.4088774.2374993 10.7757759 6.2213993z"/><path d="m9.9844742 25.3319511 9.3542003 5.4006005.4213238-.2448006-9.3543234-5.4006996z"/><path d="m26.3222733 32.857151-14.766099-8.5251999-.4088001.2376004 14.7660989 8.5252018z"/><path d="m20.9338741 31.4668522 6.7461243 3.8949985.4087753-.2375984-6.7461986-3.8950004z"/><path d="m26.836174 33.6274529 1.8206005 1.051197.4088001-.2375984-1.8205776-1.0512009z"/><path d="m25.9923744 31.6764507 4.0277996 2.3253994.408823-.2375984-4.0277233-2.3253994z"/><path d="m27.9928741 24.9233513-.7681007.4463005 5.1126022 2.9517994.7679978-.4463997-.411499-.2376003-.3591004.2088012-1.9454002-1.1231002 2.3414993-1.3607006-.9352989-.5399991-.4088001.2375985.5237999.3024006-1.9326992 1.1231002-1.9328766-1.1159.359375-.2087994z"/><path d="m17.7689972 24.6100521.4113769.2376003.2106228-.1224002 2.6140766-1.5191002-.411499-.2376004-2.6140995 1.5191994z"/><path d="m26.6936741 18.7667522-1.4372006.8351002-1.1471996-.6623001-.4088993.2374992 1.5587997.8999997 1.8459988-1.0727005.2106018-.1223984-.4116001-.2376003z"/><path d="m24.4266739 16.6068516-10.6666765 6.1987991 10.651 6.1493015.7185764-.4175014-.4239006-.2447987-.3098984.1800003-1.6957779-.9791011 1.982277-1.1518994 1.8204002 1.0510998.4088993-.2376003-2.2320995-1.2887001-2.3909989 1.3894996-7.6956005-4.4430999 4.0881996-2.3759003 7.0846997 4.0904007.7679996-.4463997-.411499-.2376003-.3592758.2087993-6.6732235-3.8527984 5.3520985-3.1102009 7.2966003 4.212801-1.4370995.8351001-1.1471996-.6624012-.4088001.2376004 1.5586986.8999996 1.8459244-1.0727005 3.142376 1.8142013-1.3008004.7559986-.3740997-.2160987-.4089012.2376003.7857017.4535999 1.7095986-.9934997 5.8360023 3.3694-1.7220001 1.0007-3.2298012-1.8647003-.4089012.2376003 3.229702 1.8646984-3.2581024 1.8934002-1.6085968-.9286995.3962974-.2304001-.4239997-.2448006-.8051987.4680005 2.0326004 1.1735-4.0511017 2.3543015-2.0825996-1.2024021 2.6141014-1.5189991-.411501-.2376004-2.6140995 1.5191002-2.4689006-1.4255008.3220997-.1871987-.4238759-.2448006-.7309989.4248009 5.7984752 3.3477974 10.6665993-6.1987972z"/></g><path d="m46.7137718 23.3607521c-.7804985.4506989-1.4132996 1.5380993-1.4106979 2.4391994.0025978.9011002.6394005 1.2639999 1.4199257.8134003.7767754-.4484005 1.4094734-1.5444012 1.4068756-2.4454994-.0025025-.9011002-.6394005-1.2555008-1.4161034-.8071003z" fill="#3087a5"/><path d="m.9999977 26.3210526c.0094771.7275982.2644771 1.2377987.670777 1.4740982l21.783699 12.6655006c-.4062996-.2457008-.6613998-.7560005-.6708984-1.4740982 0-1.4552002 1.0204983-3.2126999 2.2866993-3.9403.6331005-.3684998 1.2094994-.4063034 1.6252003-.1606026l-21.7930005-12.6560993c-.4157996-.2456989-.9921999-.2077999-1.6252997.1513004-1.2567.7274991-2.277177 2.4850007-2.277177 3.9402009z" fill="#3293c9"/><path d="m25.0671749 35.0437508c-1.2609005.7280006-2.2831764 2.4846992-2.2790012 3.9405022.0041008 1.4557991 1.0330009 2.042099 2.2938995 1.3141975 1.2549248-.7244987 2.2771015-2.4950981 2.2730007-3.9508972-.004076-1.455803-1.032999-2.0283013-2.287899-1.3038025z" fill="#328eb7"/><path d="m25.0688744 36.044651c-.7805004.4505997-1.4132004 1.538002-1.4106998 2.4391022.0025997.9011002.6394005 1.2640991 1.419899.8134995.7768002-.4485016 1.4095001-1.5443993 1.4070015-2.4456024-.0026017-.9011002-.6395017-1.2553979-1.4162007-.8069993z" fill="#3087a5"/></g></svg>