<?xml version="1.0" encoding="iso-8859-1"?>
<!-- Generator: Adobe Illustrator 19.0.0, SVG Export Plug-In . SVG Version: 6.00 Build 0)  -->
<svg version="1.1" id="Capa_1" xmlns="http://www.w3.org/2000/svg" xmlns:xlink="http://www.w3.org/1999/xlink" x="0px" y="0px"
	 viewBox="0 0 496 496" style="enable-background:new 0 0 496 496;" xml:space="preserve">
<g>
	<polygon style="fill:#4D4D4D;" points="248,496 56,416 56,176 248,256 	"/>
	<polygon style="fill:#4D4D4D;" points="248,496 440,416 440,176 248,256 	"/>
</g>
<g>
	<polygon style="fill:#4989B8;" points="440,176 248,256 296,328 488,248 	"/>
	<polygon style="fill:#4989B8;" points="200,24 8,104 56,176 248,96 	"/>
	<polygon style="fill:#4989B8;" points="56,176 8,248 200,328 248,256 	"/>
	<polygon style="fill:#4989B8;" points="296,24 248,96 440,176 488,104 	"/>
</g>
<g>
	<polygon style="fill:#FFFFFF;" points="56,176 248,256 248,96 	"/>
	<polygon style="fill:#FFFFFF;" points="440,176 248,256 248,96 	"/>
</g>
<g>
	<rect x="240" y="96" style="fill:#4D4D4D;" width="16" height="112"/>
	<polygon style="fill:#4D4D4D;" points="248,219.312 202.344,173.656 213.656,162.344 248,196.688 282.344,162.344 293.656,173.656 
			"/>
	<rect x="240" y="64" style="fill:#4D4D4D;" width="16" height="16"/>
	<rect x="240" y="32" style="fill:#4D4D4D;" width="16" height="16"/>
	<rect x="240" style="fill:#4D4D4D;" width="16" height="16"/>
</g>
<g>
</g>
<g>
</g>
<g>
</g>
<g>
</g>
<g>
</g>
<g>
</g>
<g>
</g>
<g>
</g>
<g>
</g>
<g>
</g>
<g>
</g>
<g>
</g>
<g>
</g>
<g>
</g>
<g>
</g>
</svg>
