<svg id="Layer_1" enable-background="new 0 0 51 51" height="512" viewBox="0 0 51 51" width="512" xmlns="http://www.w3.org/2000/svg"><g><g><path d="m16.63177 49.42565-2.91825-1.69894c-.19102-.1106-.30663-.34685-.31166-.68866l-.06032-29.57102 2.91825 1.70397.06032 29.57102c0 .33678.12064.57305.31166.68363z" fill="#ecf0f1"/></g><g><path d="m37.61317 6.84345.06041 29.57104c.00192.67857-.47472 1.50415-1.06525 1.84509l-19.21482 11.09369c-.59054.34095-1.0703.06755-1.07222-.61102l-.06042-29.57105z" fill="#e0e2e2"/><path d="m17.16543 21.04666 19.5486-11.28642.05645 26.65662c.00088.35631-.30339.88152-.61385 1.06055l-18.9277 10.92834z" fill="#fff"/></g><g><path d="m37.28178 3.27458c-.19605-.11561-.46246-.10054-.75905.07038l-19.21736 11.0941c-.58813.34182-1.06567 1.17125-1.06064 1.84985l.01506 2.88209-2.91825-1.70397-.0151-2.87708c-.005-.6786.47252-1.50803 1.06567-1.84985l19.21237-11.0941c.29656-.17089.56803-.18599.75905-.07538z" fill="#e74c3c"/></g><g><path d="m36.52254 3.34688c.59052-.34094 1.0703-.06385 1.07222.61472l.01841 2.88185-21.3523 12.32775-.01841-2.88185c-.00192-.67857.47471-1.50784 1.06525-1.84879z" fill="#c44"/></g><g fill="#f1c40f"><path d="m18.12093 15.40745c.34128-.19704.62229-.04059.62343.35897.00111.39216-.27811.86835-.61939 1.06539s-.62228.04429-.62339-.34787c-.00114-.39956.27807-.87945.61935-1.07649z"/><path d="m20.4101 14.0858c.34128-.19704.62229-.04059.62343.35897.00111.39216-.27811.86835-.61939 1.06539-.3445.1989-.62228.04429-.62339-.34787-.00114-.39957.27485-.8776.61935-1.07649z"/><path d="m22.69926 12.76414c.34128-.19704.62229-.04059.62343.35897.00111.39216-.27811.86835-.61939 1.06539-.3445.1989-.62228.04429-.62339-.34787-.00113-.39956.27485-.87759.61935-1.07649z"/></g><path d="m36.3511 5.07495.00296 1.04329-7.69817 4.44455-.00296-1.0433z" fill="#fff"/><g><g><path d="m30.94172 15.90506c.4009-.23146.75568-.21059.97145.01458-.13549.30025-.21509.61806-.21425.91386.00082.29075.08195.51268.21869.65385-.2138.4702-.56729.90001-.96819 1.13147-.38349.22141-.72567.21008-.9429.01087-.1519-.13929-.24278-.37029-.24366-.6784-.00078-.27628.06864-.57176.18816-.8542.21003-.49633.5754-.95225.9907-1.19203z" fill="#3498db"/></g><g><path d="m29.00589 17.10509c.38337-.22134.7268-.2094.94513-.00799-.11952.28244-.18895.57792-.18816.8542.00087.30811.09176.53912.24366.6784-.21124.49318-.57794.94957-.99293 1.18916-.65163.37622-1.1882.0834-1.19033-.66537-.00215-.75744.531-1.67218 1.18263-2.0484z" fill="#e74c3c"/></g><g><path d="m32.87778 14.78727c.6554-.3784 1.18821-.08341 1.19036.67836.00212.74878-.52727 1.65701-1.18267 2.03541-.3986.23013-.75246.20871-.96787-.01369-.13674-.14117-.21787-.3631-.21869-.65385-.00084-.2958.07875-.61362.21425-.91386.21345-.47297.56602-.90223.96462-1.13237z" fill="#f1c40f"/></g><g><path d="m26.98946 19.15367.0027.95219-3.45402 1.99418-.00271-.95219z" fill="#c4c6c6"/></g><g><path d="m34.88176 34.96412.0041 1.44561-14.84441 8.57043-.0041-1.44562z" fill="#e0e2e2"/></g><g><path d="m34.87319 31.93872.0041 1.44561-14.84441 8.57042-.0041-1.4456z" fill="#e0e2e2"/></g><g enable-background="new"><g><path d="m32.26561 27.75199c.4859-.28053.88644-.06092.88805.50608.00158.55833-.39641 1.23898-.88231 1.51951-.29722.1716-.56231.15574-.72388-.00999-.10256-.10521-.16353-.27062-.16414-.48742-.00062-.22017.0592-.4574.16083-.68176.1601-.35343.42423-.67482.72145-.84642z" fill="#f1c40f"/></g><g><path d="m30.81922 28.58707c.29953-.17293.56412-.1568.72495.01134-.10163.22436-.16145.46159-.16083.68176.00062.2168.06158.38221.16414.48742-.15936.35102-.42299.67214-.72252.84507-.28536.16475-.54113.15679-.70409.00924-.11452-.1037-.18328-.27621-.18393-.50664-.00058-.20646.05202-.42797.14235-.63977.15774-.36985.43096-.71004.73993-.88842z" fill="#e67e22"/></g><g><path d="m29.37299 29.48275c.28817-.16637.54408-.15788.7063-.00726-.09033.2118-.14294.4333-.14235.63977.00065.23043.06941.40295.18393.50664-.15676.36938-.42995.71054-.74212.89077-.4859.28053-.88644.06092-.88804-.50174-.00161-.567.39638-1.24765.88228-1.52818z" fill="#2ecc71"/></g><g><path d="m32.8376 21.90295c.48213-.27836.87514-.05439.87671.49961l.01838 6.48362c.00157.554-.38889 1.23031-.87102 1.50867l-11.79341 6.80893c-.48213.27836-.87514.05439-.87671-.49961l-.01838-6.48362c-.00157-.554.38889-1.23031.87102-1.50867zm-.56623 7.87463c.48589-.28053.88389-.96119.88231-1.51951-.00161-.56701-.40216-.78662-.88805-.50609-.29722.1716-.56136.493-.72146.84644-.16082-.16815-.42541-.18429-.72495-.01135-.30895.17838-.58218.51857-.73993.88843-.16221-.15062-.41812-.15913-.70629.00724-.48591.28054-.88389.96119-.88228 1.5282.00159.56264.40213.78227.88804.50173.31217-.18023.58536-.52138.74212-.89076.16295.14757.41873.15552.70408-.00923.29954-.17294.56317-.49406.72252-.84509.16157.16572.42667.18158.72389.00999m-10.87186 1.83754.00244.86132 11.04761-6.37834-.00244-.86132zm6.50466.10292-.00245-.86563-6.49373 3.74916.00245.86563zm-6.51103-2.34924.00199.70116 3.85707-2.22688-.00199-.70116zm4.84769-2.79882.00199.70116 3.85707-2.22688-.00199-.70116z" fill="#5b5e71"/></g><g><path d="m27.9017 30.85244.00245.86563-6.49372 3.74915-.00246-.86563z" fill="#e0e2e2"/></g><g><path d="m32.44712 25.23679.00245.86132-11.04762 6.37834-.00244-.86131z" fill="#e0e2e2"/></g></g><g><path d="m23.0307 21.43926.0027.95219-3.49923 2.02028-.00269-.95219z" fill="#c4c6c6"/></g><g><path d="m30.09789 24.34312.00199.70117-3.85706 2.22688-.00199-.70117z" fill="#e0e2e2"/></g><g><path d="m34.2543 13.25987c.29757-.1718.53941-.03396.54037.30362l.00836 2.9475c.00096.33759-.23932.75375-.53688.92555l-14.67113 8.47038c-.29381.16963-.53565.03181-.53661-.30577l-.00836-2.94751c-.00096-.33759.23931-.75377.53312-.9234zm-1.36881 4.24115c.65539-.37839 1.18477-1.28663 1.18265-2.0354-.00216-.76176-.53495-1.05675-1.19035-.67836-.39861.23014-.75119.65939-.96463 1.13237-.21576-.22518-.57053-.24604-.97144-.01458-.4153.23977-.78066.6957-.99071 1.19202-.21833-.20139-.56176-.21333-.94512.00801-.65163.37622-1.1848 1.29097-1.18265 2.04841.00212.74877.53871 1.04158 1.19034.66536.41499-.23959.78169-.69597.99291-1.18915.21725.1992.55943.21053.94291-.01088.40091-.23146.75441-.66129.96819-1.13147.21544.22238.5693.24381.9679.01367m-9.85209 4.89042-.0027-.95219-3.49921 2.02027.0027.95219zm3.95876-2.28559-.0027-.95219-3.45402 1.99418.0027.95219z" fill="#e0e2e2"/></g><g><path d="m25.2502 27.14194.00199.70117-3.85706 2.22687-.00199-.70117z" fill="#e0e2e2"/></g></g></g></svg>