<svg height="512" viewBox="0 0 59 59" width="512" xmlns="http://www.w3.org/2000/svg"><g id="004---Scrum" fill="none" transform="translate(0 -1)"><g fill="#006dd9"><path id="Path" d="m53.506 52.143 5.031 3.045c.286507.1685289.4624248.4761023.4624248.8085s-.1759178.6399711-.4624248.8085l-5.037 3.049c-.2975544.1857715-.671658.1985255-.9811736.0334505-.3095157-.165075-.5073347-.4828544-.5188264-.8334505v-6.1c.0088783-.3533789.2064352-.6749042.5176666-.8425063.3112314-.167602.6884087-.1555783.9883334.0315063z"/><path id="Path" d="m11.99 42.31-.64 5.84c-.0306612.3324406-.23607.6233836-.5390729.7635482-.3030029.1401647-.6577241.1083294-.9309271-.0835482l-4.88-3.28c-.29543977-.1906956-.46621591-.5249337-.4476258-.8760802s.22370264-.6654846.5376258-.8239198l1.76-.82 1.82-.84 1.96-.91c.3242534-.1380446.6975946-.0919474.9785322.1208216.2809376.2127689.4264797.5596494.3814678.9091784z"/><path id="Path" d="m18.65 5.55-.57 3.77c-.0422586.32339941-.2506676.60110476-.5493771.7320459-.2987096.1309412-.644159.0960231-.9106229-.0920459l-3.16-2.14c-.3056404-.19832952-.4815304-.54526332-.460862-.90902625.0206683-.36376293.2347237-.68854074.560862-.85097375l.92-.4 1.86-.81.96-.42c.3393512-.1268154.7206174-.06236529.99943.16894592.2788127.23131121.4125494.59412285.35057.95105408z"/></g><path id="Path" d="m16 17c0 1.6568542-1.3431458 3-3 3-.1981818-.0001513-.395845-.0202526-.59-.06h-.01c-.6769639-.135755-1.2852963-.5035839-1.72-1.04-.02-.02-.04-.05-.06-.07-.400571-.5261351-.6182821-1.1687343-.62-1.83v-.07c.0380309-1.6294544 1.3701019-2.9304438 3-2.93.8134144-.0056285 1.5924349.3277198 2.15.92.4939285.4951952.7922511 1.1522152.84 1.85.008321.0763684.0116614.1531976.01.23z" fill="#ffc436"/><path id="Path" d="m52 57h-51c-.55228475 0-1-.4477153-1-1s.44771525-1 1-1h27c11.5979796-.0000002 20.9999997-9.4020204 20.9999997-21s-9.4020201-20.9999998-20.9999997-21c-4.2970058-.0164459-8.4932577 1.3007789-12.01 3.77-.0477489-.6977848-.3460715-1.3548048-.84-1.85 3.7920337-2.5683938 8.2700483-3.9344497 12.85-3.92 10.8581534-.0034736 20.238829 7.5890956 22.4981008 18.209604s-3.2187134 21.37392-13.1381008 25.790396h14.64z" fill="#2081e9"/><path id="Path" d="m7 34c-.0104749 2.8155976.5579561 5.6032921 1.67 8.19l-1.82.84c0-.01-.01-.01-.01-.02-3.4591297-8.1068802-1.96645599-17.4788498 3.84-24.11.4347037.5364161 1.0430361.904245 1.72 1.04-3.48724286 3.8511939-5.41272518 8.8645794-5.4 14.06z" fill="#2081e9"/><path id="Path" d="m16.34 4.85-1.86.81c-2.0282022-2.56665285-5.56361322-3.38632172-8.51432098-1.97400635-2.95070775 1.41231536-4.52978201 4.67996173-3.80288032 7.86946405.72690169 3.1895023 3.56592045 5.4502457 6.8372013 5.4445423.33462196.0019283.66890999-.0214718 1-.07v.07c.0017179.6612657.219429 1.3038649.62 1.83-.5335208.1070369-1.07588163.1639513-1.62.17-4.23978726-.001305-7.90370339-2.9615003-8.79576401-7.1063797-.89206062-4.14487948 1.22968011-8.3502634 5.09354749-10.09563631 3.86386738-1.7453729 8.42189822-.55735246 10.94221652 2.85201601.0469726.05892737.0810416.12706553.1.2z" fill="#2081e9"/></g></svg>