<svg id="Capa_1" enable-background="new 0 0 512 512" height="512" viewBox="0 0 512 512" width="512" xmlns="http://www.w3.org/2000/svg"><g><path d="m415.999 512c-2.292 0-4.59-.525-6.707-1.584l-153.292-76.645-153.292 76.646c-4.651 2.326-10.172 2.077-14.594-.656-4.422-2.735-7.114-7.563-7.114-12.761v-402c0-8.284 6.716-15 15-15h320c8.284 0 15 6.716 15 15v402c0 5.198-2.691 10.026-7.114 12.76-2.408 1.488-5.144 2.24-7.887 2.24z" fill="#6ba7ff"/><path d="m431 497v-402c0-8.284-6.716-15-15-15h-160v353.771l153.292 76.646c2.117 1.059 4.415 1.584 6.707 1.584 2.743 0 5.479-.752 7.887-2.24 4.423-2.735 7.114-7.563 7.114-12.761z" fill="#2681ff"/><path d="m46 80h-30c-8.284 0-15-6.716-15-15s6.716-15 15-15h30c8.284 0 15 6.716 15 15s-6.716 15-15 15z" fill="#bedceb"/><path d="m46 35v60c0 8.284 6.716 15 15 15h390c8.284 0 15-6.716 15-15v-60c0-8.284-6.716-15-15-15h-390c-8.284 0-15 6.716-15 15z" fill="#c6865c"/><path d="m256 371c-63.411 0-115-51.589-115-115s51.589-115 115-115 115 51.589 115 115-51.589 115-115 115z" fill="#dcf0ff"/><path d="m46 130c-8.284 0-15-6.716-15-15v-100c0-8.284 6.716-15 15-15s15 6.716 15 15v100c0 8.284-6.716 15-15 15z" fill="#dcf0ff"/><path d="m451 20h-195v90h195c8.284 0 15-6.716 15-15v-60c0-8.284-6.716-15-15-15z" fill="#b46e3d"/><path d="m371 256c0-63.411-51.589-115-115-115v230c63.411 0 115-51.589 115-115z" fill="#bedceb"/><path d="m496 80h-30c-8.284 0-15-6.716-15-15s6.716-15 15-15h30c8.284 0 15 6.716 15 15s-6.716 15-15 15z" fill="#a5bfce"/><path d="m466 130c-8.284 0-15-6.716-15-15v-100c0-8.284 6.716-15 15-15s15 6.716 15 15v100c0 8.284-6.716 15-15 15z" fill="#bedceb"/><path d="m286.9 316.105c-2.388 0-4.783-.569-6.979-1.723l-23.921-12.576-23.921 12.577c-5.057 2.656-11.179 2.214-15.797-1.142-4.619-3.356-6.933-9.044-5.968-14.671l4.568-26.638-19.353-18.864c-4.089-3.985-5.561-9.946-3.796-15.376 1.764-5.431 6.458-9.389 12.108-10.209l26.745-3.887 11.961-24.235c2.529-5.12 7.743-8.361 13.453-8.361s10.924 3.241 13.451 8.361l11.961 24.235 26.745 3.887c5.65.82 10.345 4.778 12.108 10.209 1.765 5.43.293 11.391-3.796 15.376l-19.353 18.864 4.568 26.638c.965 5.627-1.349 11.314-5.968 14.671-2.61 1.899-5.706 2.864-8.816 2.864z" fill="#ffeb3c"/><path d="m279.921 314.383c2.195 1.153 4.591 1.723 6.979 1.723 3.11 0 6.206-.966 8.818-2.864 4.619-3.356 6.933-9.044 5.968-14.671l-4.568-26.638 19.353-18.864c4.089-3.985 5.561-9.946 3.796-15.376-1.764-5.431-6.458-9.389-12.108-10.209l-26.745-3.887-11.961-24.235c-2.529-5.121-7.743-8.362-13.453-8.362v110.806z" fill="#ffd228"/></g></svg>