<svg id="Icons" height="512" viewBox="0 0 60 60" width="512" xmlns="http://www.w3.org/2000/svg"><path d="m2 37v-26a2.006 2.006 0 0 1 2-2h52a2.006 2.006 0 0 1 2 2v26z" fill="#4d88a9"/><path d="m45.7 33.02-.9-2.11a17.15 17.15 0 0 0 1.97-4.75l3.38-1.35a1.228 1.228 0 0 0 .77-1.01c.06-.6.08-1.2.08-1.8s-.02-1.2-.08-1.8a1.228 1.228 0 0 0 -.77-1.01l-3.38-1.35a17.15 17.15 0 0 0 -1.97-4.75l1.43-3.35a1.2 1.2 0 0 0 -.17-1.26c-.38-.46-.79-.9-1.21-1.33s-.87-.83-1.33-1.21a1.2 1.2 0 0 0 -1.26-.17l-3.35 1.43a17.15 17.15 0 0 0 -4.75-1.97l-1.35-3.38a1.228 1.228 0 0 0 -1.01-.77c-.6-.06-1.2-.08-1.8-.08s-1.2.02-1.8.08a1.228 1.228 0 0 0 -1.01.77l-1.35 3.38a17.15 17.15 0 0 0 -4.75 1.97l-3.35-1.43a1.2 1.2 0 0 0 -1.26.17c-.46.38-.9.79-1.33 1.21s-.83.87-1.21 1.33a1.2 1.2 0 0 0 -.17 1.26l1.43 3.35a17.15 17.15 0 0 0 -1.97 4.75l-3.38 1.35a1.228 1.228 0 0 0 -.77 1.01c-.06.6-.08 1.2-.08 1.8s.02 1.2.08 1.8a1.228 1.228 0 0 0 .77 1.01l3.38 1.35a17.15 17.15 0 0 0 1.97 4.75l-.9 2.11.7 1.98h30z" fill="#ccd0da"/><path d="m58 35a1 1 0 0 1 1 1v20a3 3 0 0 1 -3 3h-52a3 3 0 0 1 -3-3v-20a1 1 0 0 1 1-1z" fill="#346d92"/><rect fill="#f0f2f5" height="8" rx="2" width="10" x="6" y="33"/><rect fill="#f0f2f5" height="8" rx="2" width="10" x="44" y="33"/><circle cx="30" cy="22" fill="#a7adb7" r="13"/><g fill="#ccd0da"><circle cx="30" cy="22" r="7"/><path d="m12 38h-2a1 1 0 0 1 0-2h2a1 1 0 0 1 0 2z"/><path d="m50 38h-2a1 1 0 0 1 0-2h2a1 1 0 0 1 0 2z"/></g><path d="m22 54a.994.994 0 0 1 -.58-.187l-7-5a1 1 0 0 1 0-1.626l7-5a1 1 0 1 1 1.162 1.626l-5.861 4.187 5.86 4.187a1 1 0 0 1 -.581 1.813z" fill="#6dccb1"/><path d="m38 54a1 1 0 0 1 -.582-1.813l5.861-4.187-5.86-4.187a1 1 0 0 1 1.162-1.626l7 5a1 1 0 0 1 0 1.626l-7 5a.994.994 0 0 1 -.581.187z" fill="#6dccb1"/><path d="m26 55a1 1 0 0 1 -.831-1.555l8-12a1 1 0 0 1 1.664 1.11l-8 12a1 1 0 0 1 -.833.445z" fill="#6dccb1"/></svg>