<svg id="Layer_1" enable-background="new 0 0 51 51" height="512" viewBox="0 0 51 51" width="512" xmlns="http://www.w3.org/2000/svg"><g><g><g enable-background="new"><g><path d="m11.21445 49.74252-3.11563-1.86671c-.2433-.14008-.39072-.435-.39072-.85523l-.06636-24.41762 3.12301 1.86676.06633 24.41024c-.00001.42761.14745.72248.38337.86256z" fill="#ecf0f1"/></g><g><path d="m43.29642 5.6835.06922 24.41524c.00241.84918-.59346 1.87582-1.33247 2.30249l-29.86636 17.24335c-.73901.42667-1.33403.08758-1.33644-.7616l-.06922-24.41524z" fill="#e0e2e2"/><path d="m11.76269 25.04375 30.53857-17.63135.06445 22.68945c.00146.48877-.40332 1.18555-.83252 1.43359l-29.70312 17.14893z" fill="#fff"/></g></g><g enable-background="new"><g><path d="m42.90132 3.12641c-.24331-.14008-.57503-.11794-.95103.09585l-29.86589 17.24421c-.73725.42757-1.32703 1.45235-1.32703 2.30021l.00738 1.70304-3.12301-1.86676-.00738-1.70304c0-.84785.58979-1.87259 1.32704-2.30021l29.86587-17.24421c.376-.21379.70777-.23592.95103-.09585z" fill="#5b5e71"/></g><g><path d="m41.95044 3.22084c.73901-.42667 1.33875-.08489 1.34114.75888l.00483 1.70378-32.53526 18.78424-.00483-1.70378c-.00239-.84377.58875-1.8731 1.32776-2.29977z" fill="#474b59"/></g></g></g><path d="m20.03886 22.91899.0016.56252-7.4513 4.302-.00159-.56251z" fill="#c4c6c6"/><path d="m20.4326 27.0962c1.25839-.72653 2.39079-.75759 3.17691-.21949-.68752 1.27135-1.10488 2.67367-1.10127 3.94575.00361 1.27463.42755 2.19255 1.12002 2.66788-.7805 1.44339-1.90937 2.7179-3.16776 3.44444-2.36295 1.36425-4.28497.26895-4.29268-2.45167-.0077-2.7152 1.90183-6.02266 4.26478-7.38691z" fill="#3498db"/><path d="m17.79716 25.47556.00158.55708-5.20602 3.0057-.00158-.55709z" fill="#c4c6c6"/><path d="m22.02169 20.51731.00158.5571-9.43768 5.44885-.00158-.55711z" fill="#c4c6c6"/><path d="m13.46989 20.80095.00354 1.24943-1.08733.62777-.00354-1.24943z" fill="#fff"/><path d="m15.71516 19.50464.00355 1.24943-1.08734.62777-.00354-1.24943z" fill="#fff"/><path d="m17.96044 18.20833.00354 1.24943-1.09204.63049-.00354-1.24943z" fill="#fff"/><g fill="#c4c6c6"><path d="m40.99062 27.66049.00158.55711-5.20602 3.0057-.00158-.55711z"/><path d="m40.99419 28.92075.00158.55711-7.45129 4.302-.00158-.5571z"/><path d="m40.99775 30.1756.00159.56249-9.43767 5.44885-.0016-.5625z"/></g><path d="m33.11345 19.7749c2.36765-1.36697 4.28967-.27165 4.29737 2.44354.00771 2.72062-1.90182 6.02807-4.26948 7.39504-1.25589.72509-2.38709.75543-3.17266.21621-.69247-.47533-1.11641-1.39325-1.12002-2.66788-.00361-1.27209.41375-2.6744 1.10127-3.94575.77995-1.44227 1.90763-2.71607 3.16352-3.44116z" fill="#f1c40f"/><path d="m26.77303 23.43555c1.2584-.72654 2.39079-.75759 3.17691-.21949-.68752 1.27135-1.10488 2.67367-1.10127 3.94575.00361 1.27463.42755 2.19255 1.12002 2.66788-.7805 1.44339-1.90937 2.7179-3.16776 3.44443-1.2559.72509-2.38709.75544-3.17266.21621-.69247-.47533-1.11641-1.39325-1.12002-2.66788-.00361-1.27209.41375-2.6744 1.10127-3.94575.77994-1.44226 1.90761-2.71606 3.16351-3.44115z" fill="#2ebf69"/></g></svg>